<svg xmlns="http://www.w3.org/2000/svg" viewBox="0 0 24 24" width="24" height="24" color="white" fill="none">
    <path fill-rule="evenodd" clip-rule="evenodd" d="M12 2.25C17.3848 2.25 21.75 6.61522 21.75 12C21.75 13.5411 21.3136 15.687 20.7969 17.2373C20.7719 17.3122 20.7326 17.3778 20.6885 17.4385C20.6584 17.6016 20.6189 17.7649 20.5654 17.9268L20.1279 19.2529C19.4975 21.1619 17.4427 22.2007 15.5361 21.5654C15.5172 21.5591 15.4979 21.5518 15.4795 21.5439C15.0985 21.3817 14.7662 21.0848 14.5469 20.7432C14.3299 20.4051 14.1643 19.9254 14.2988 19.415L14.3164 19.3594L16.0537 14.3682L16.0654 14.3379C16.3964 13.5049 17.3121 13.1631 18.0547 13.2744L18.2012 13.3027L18.2637 13.3203C18.9578 13.5519 19.5348 13.9736 19.958 14.5078C20.1361 13.6067 20.25 12.7113 20.25 12C20.25 7.44365 16.5563 3.75 12 3.75C7.44365 3.75 3.75 7.44365 3.75 12C3.75 12.7112 3.86297 13.6067 4.04102 14.5078C4.46436 13.9732 5.04272 13.552 5.7373 13.3203C5.75767 13.3135 5.77894 13.3077 5.7998 13.3027C6.51604 13.1312 7.45684 13.4098 7.8623 14.1777L7.93555 14.3379L7.94727 14.3682L9.68457 19.3594C9.69092 19.3776 9.69723 19.3964 9.70215 19.415C9.83664 19.9254 9.67101 20.4051 9.4541 20.7432C9.23476 21.0849 8.90253 21.3816 8.52148 21.5439C8.50304 21.5518 8.48385 21.5591 8.46484 21.5654C6.55817 22.2009 4.50356 21.162 3.87305 19.2529L3.43555 17.9268C3.38217 17.7651 3.34061 17.6024 3.31055 17.4395C3.26641 17.3788 3.22811 17.3123 3.20312 17.2373C2.68637 15.687 2.25 13.5411 2.25 12C2.25 6.61522 6.61522 2.25 12 2.25ZM17.8252 14.7568C17.7549 14.7463 17.6649 14.755 17.583 14.791C17.4979 14.8285 17.4688 14.8722 17.4609 14.8887L15.75 19.7998C15.7521 19.8177 15.7629 19.8625 15.8086 19.9336C15.8736 20.0348 15.9685 20.1122 16.0449 20.1514C17.1495 20.4992 18.3351 19.8967 18.7031 18.7822L19.1416 17.4561C19.5097 16.341 18.9173 15.1431 17.8252 14.7568ZM6.1748 14.7568C5.08301 15.1433 4.49131 16.3412 4.85938 17.4561L5.29785 18.7822C5.66589 19.8965 6.85069 20.4988 7.95508 20.1514C8.03165 20.1123 8.12718 20.0352 8.19238 19.9336C8.238 19.8625 8.24795 19.8177 8.25 19.7998L6.53906 14.8887C6.53103 14.872 6.50241 14.8283 6.41797 14.791C6.33572 14.7548 6.24526 14.7461 6.1748 14.7568Z" fill="currentColor"></path>
</svg>